<svg width="47" height="47" viewBox="0 0 47 47" fill="none" xmlns="http://www.w3.org/2000/svg">
<path d="M25.2083 31.0625L31.1667 25.1042C31.5868 24.6841 31.7969 24.1493 31.7969 23.5C31.7969 22.8507 31.5868 22.316 31.1667 21.8959L25.151 15.8802C24.7309 15.4601 24.2053 15.2592 23.5744 15.2775C22.9434 15.2959 22.4186 15.5159 22 15.9375C21.5799 16.3577 21.3698 16.8924 21.3698 17.5417C21.3698 18.191 21.5799 18.7257 22 19.1459L24.0625 21.2084H16.6719C16.0226 21.2084 15.4878 21.4284 15.0677 21.8684C14.6476 22.3084 14.4375 22.8523 14.4375 23.5C14.4375 24.1493 14.6575 24.694 15.0975 25.134C15.5375 25.574 16.0814 25.7932 16.7292 25.7917H24.0625L21.9427 27.9115C21.5226 28.3316 21.3217 28.8572 21.34 29.4882C21.3583 30.1191 21.5783 30.6439 22 31.0625C22.4201 31.4827 22.9549 31.6927 23.6042 31.6927C24.2535 31.6927 24.7882 31.4827 25.2083 31.0625ZM23.6042 46.4167C20.434 46.4167 17.4549 45.8148 14.6667 44.6109C11.8785 43.407 9.45313 41.7746 7.39063 39.7136C5.32813 37.6511 3.69569 35.2257 2.49333 32.4375C1.29097 29.6493 0.689028 26.6702 0.6875 23.5C0.6875 20.3299 1.28944 17.3507 2.49333 14.5625C3.69722 11.7743 5.32965 9.349 7.39063 7.2865C9.45313 5.224 11.8785 3.59157 14.6667 2.38921C17.4549 1.18685 20.434 0.584902 23.6042 0.583374C26.7743 0.583374 29.7535 1.18532 32.5417 2.38921C35.3299 3.5931 37.7552 5.22553 39.8177 7.2865C41.8802 9.349 43.5134 11.7743 44.7173 14.5625C45.9212 17.3507 46.5224 20.3299 46.5208 23.5C46.5208 26.6702 45.9189 29.6493 44.715 32.4375C43.5111 35.2257 41.8787 37.6511 39.8177 39.7136C37.7552 41.7761 35.3299 43.4093 32.5417 44.6132C29.7535 45.8171 26.7743 46.4182 23.6042 46.4167Z" fill="#0242E6"/>
</svg>
