<svg width="45" height="44" viewBox="0 0 45 44" fill="none" xmlns="http://www.w3.org/2000/svg">
<path d="M22.2877 34.0083L22.1043 34.1917L21.9027 34.0083C13.1943 26.1067 7.43766 20.8817 7.43766 15.5833C7.43766 11.9167 10.1877 9.16667 13.8543 9.16667C16.6777 9.16667 19.4277 11 20.3993 13.4933H23.8093C24.781 11 27.531 9.16667 30.3543 9.16667C34.021 9.16667 36.771 11.9167 36.771 15.5833C36.771 20.8817 31.0143 26.1067 22.2877 34.0083ZM30.3543 5.5C27.1643 5.5 24.1027 6.985 22.1043 9.31333C20.106 6.985 17.0443 5.5 13.8543 5.5C8.20766 5.5 3.771 9.91833 3.771 15.5833C3.771 22.495 10.0043 28.16 19.446 36.7217L22.1043 39.1417L24.7627 36.7217C34.2043 28.16 40.4377 22.495 40.4377 15.5833C40.4377 9.91833 36.001 5.5 30.3543 5.5Z" fill="black"/>
</svg>
