<svg width="24" height="25" viewBox="0 0 24 25" fill="none" xmlns="http://www.w3.org/2000/svg">
<path d="M19.6 21.8579L13.3 15.5579C12.8 15.9579 12.225 16.2746 11.575 16.5079C10.925 16.7412 10.2333 16.8579 9.5 16.8579C7.68333 16.8579 6.146 16.2289 4.888 14.9709C3.62933 13.7122 3 12.1746 3 10.3579C3 8.54124 3.62933 7.00358 4.888 5.74491C6.146 4.48691 7.68333 3.85791 9.5 3.85791C11.3167 3.85791 12.8543 4.48691 14.113 5.74491C15.371 7.00358 16 8.54124 16 10.3579C16 11.0912 15.8833 11.7829 15.65 12.4329C15.4167 13.0829 15.1 13.6579 14.7 14.1579L21 20.4579L19.6 21.8579ZM9.5 14.8579C10.75 14.8579 11.8127 14.4206 12.688 13.5459C13.5627 12.6706 14 11.6079 14 10.3579C14 9.10791 13.5627 8.04524 12.688 7.16991C11.8127 6.29524 10.75 5.85791 9.5 5.85791C8.25 5.85791 7.18733 6.29524 6.312 7.16991C5.43733 8.04524 5 9.10791 5 10.3579C5 11.6079 5.43733 12.6706 6.312 13.5459C7.18733 14.4206 8.25 14.8579 9.5 14.8579Z" fill="rgb(0 0 0 / 40%)"/>
</svg>
