<svg width="253" height="253" viewBox="0 0 253 253" fill="none" xmlns="http://www.w3.org/2000/svg">
<path d="M253 126.5C253 196.364 196.364 253 126.5 253C56.636 253 0 196.364 0 126.5C0 56.636 56.636 0 126.5 0C196.364 0 253 56.636 253 126.5Z" fill="#FF1B88"/>
<path d="M253 126.5C253 196.364 196.364 253 126.5 253C56.636 253 0 196.364 0 126.5C0 56.636 56.636 0 126.5 0C196.364 0 253 56.636 253 126.5Z" fill="url(#paint0_linear_8_5)"/>
<path d="M137.283 160.502L164.072 133.713C165.961 131.824 166.906 129.42 166.906 126.5C166.906 123.581 165.961 121.177 164.072 119.288L137.025 92.2406C135.136 90.3516 132.773 89.4483 129.937 89.5307C127.1 89.6132 124.74 90.6023 122.858 92.4982C120.969 94.3872 120.024 96.7914 120.024 99.7107C120.024 102.63 120.969 105.034 122.858 106.923L132.131 116.197H98.902C95.9826 116.197 93.5784 117.186 91.6894 119.164C89.8004 121.142 88.8559 123.588 88.8559 126.5C88.8559 129.42 89.8451 131.868 91.8234 133.847C93.8017 135.825 96.2471 136.811 99.1596 136.804H132.131L122.6 146.335C120.711 148.224 119.808 150.587 119.89 153.424C119.973 156.26 120.962 158.62 122.858 160.502C124.747 162.391 127.151 163.336 130.07 163.336C132.99 163.336 135.394 162.391 137.283 160.502ZM130.07 229.536C115.817 229.536 102.422 226.83 89.8863 221.417C77.3502 216.004 66.4456 208.665 57.1723 199.398C47.899 190.125 40.5594 179.22 35.1534 166.684C29.7475 154.148 27.041 140.754 27.0342 126.5C27.0342 112.247 29.7406 98.8521 35.1534 86.316C40.5663 73.7799 47.9059 62.8752 57.1723 53.602C66.4456 44.3287 77.3502 36.9891 89.8863 31.5831C102.422 26.1772 115.817 23.4707 130.07 23.4639C144.324 23.4639 157.719 26.1703 170.255 31.5831C182.791 36.996 193.695 44.3356 202.969 53.602C212.242 62.8752 219.585 73.7799 224.998 86.316C230.411 98.8521 196.643 112.247 196.636 126.5C196.636 140.754 230.4 154.148 224.987 166.684C219.575 179.22 212.235 190.125 202.969 199.398C193.695 208.672 182.791 216.015 170.255 221.427C157.719 226.84 144.324 229.543 130.07 229.536Z" fill="#F5F6F8"/>
<defs>
<linearGradient id="paint0_linear_8_5" x1="126.5" y1="0" x2="126.5" y2="253" gradientUnits="userSpaceOnUse">
<stop stop-color="#0242E6"/>
<stop offset="1" stop-opacity="0"/>
</linearGradient>
</defs>
</svg>
